<mxfile host="app.diagrams.net" modified="2022-06-06T10:06:34.520Z" agent="5.0 (Windows NT 10.0; Win64; x64) AppleWebKit/537.36 (KHTML, like Gecko) Chrome/102.0.5005.63 Safari/537.36" etag="8i3eC0_QzcznZIv4-4Cu" version="19.0.0" type="github">
  <diagram id="WBBzrLVB4H3pHpH7rxZI" name="Page-1">
    <mxGraphModel dx="1422" dy="762" grid="1" gridSize="10" guides="1" tooltips="1" connect="1" arrows="1" fold="1" page="1" pageScale="1" pageWidth="2339" pageHeight="3300" math="0" shadow="0">
      <root>
        <mxCell id="0" />
        <mxCell id="1" parent="0" />
        <mxCell id="qMlEdyEDlKEKImTxNxm0-36" style="edgeStyle=orthogonalEdgeStyle;rounded=0;orthogonalLoop=1;jettySize=auto;html=1;exitX=0;exitY=0.5;exitDx=0;exitDy=0;entryX=1;entryY=0.5;entryDx=0;entryDy=0;fontSize=13;" parent="1" source="qMlEdyEDlKEKImTxNxm0-1" target="qMlEdyEDlKEKImTxNxm0-4" edge="1">
          <mxGeometry relative="1" as="geometry" />
        </mxCell>
        <mxCell id="qMlEdyEDlKEKImTxNxm0-1" value="&lt;font style=&quot;font-size: 14px;&quot;&gt;&lt;b&gt;map.put(key,value)&lt;/b&gt;&lt;/font&gt;" style="rounded=1;whiteSpace=wrap;html=1;fillColor=#dae8fc;strokeColor=#6c8ebf;" parent="1" vertex="1">
          <mxGeometry x="800" y="330" width="122.5" height="60" as="geometry" />
        </mxCell>
        <mxCell id="qMlEdyEDlKEKImTxNxm0-2" value="&lt;font style=&quot;font-size: 18px;&quot;&gt;&lt;b&gt;HashMap的put流程&lt;/b&gt;&lt;/font&gt;" style="text;html=1;align=center;verticalAlign=middle;resizable=0;points=[];autosize=1;strokeColor=none;fillColor=none;" parent="1" vertex="1">
          <mxGeometry x="530" y="150" width="180" height="20" as="geometry" />
        </mxCell>
        <mxCell id="qMlEdyEDlKEKImTxNxm0-7" value="" style="edgeStyle=orthogonalEdgeStyle;rounded=0;orthogonalLoop=1;jettySize=auto;html=1;fontSize=14;" parent="1" source="qMlEdyEDlKEKImTxNxm0-3" target="qMlEdyEDlKEKImTxNxm0-6" edge="1">
          <mxGeometry relative="1" as="geometry" />
        </mxCell>
        <mxCell id="qMlEdyEDlKEKImTxNxm0-3" value="&lt;font style=&quot;font-size: 14px;&quot;&gt;&lt;b&gt;计算元素存放的位置&lt;br&gt;（n - 1）&amp;amp; hash&lt;/b&gt;&lt;/font&gt;" style="rounded=1;whiteSpace=wrap;html=1;fillColor=#dae8fc;strokeColor=#6c8ebf;" parent="1" vertex="1">
          <mxGeometry x="438.75" y="330" width="127.5" height="60" as="geometry" />
        </mxCell>
        <mxCell id="qMlEdyEDlKEKImTxNxm0-8" style="edgeStyle=orthogonalEdgeStyle;rounded=0;orthogonalLoop=1;jettySize=auto;html=1;exitX=0;exitY=0.5;exitDx=0;exitDy=0;fontSize=14;" parent="1" source="qMlEdyEDlKEKImTxNxm0-4" target="qMlEdyEDlKEKImTxNxm0-3" edge="1">
          <mxGeometry relative="1" as="geometry" />
        </mxCell>
        <mxCell id="qMlEdyEDlKEKImTxNxm0-4" value="&lt;font style=&quot;font-size: 14px;&quot;&gt;&lt;b&gt;根据hashcode获取hash值 hash(key)&lt;/b&gt;&lt;/font&gt;" style="rounded=1;whiteSpace=wrap;html=1;fillColor=#dae8fc;strokeColor=#6c8ebf;" parent="1" vertex="1">
          <mxGeometry x="617.5" y="330" width="125" height="60" as="geometry" />
        </mxCell>
        <mxCell id="qMlEdyEDlKEKImTxNxm0-11" style="edgeStyle=orthogonalEdgeStyle;rounded=0;orthogonalLoop=1;jettySize=auto;html=1;entryX=0.5;entryY=0;entryDx=0;entryDy=0;fontSize=14;" parent="1" source="qMlEdyEDlKEKImTxNxm0-6" target="qMlEdyEDlKEKImTxNxm0-10" edge="1">
          <mxGeometry relative="1" as="geometry" />
        </mxCell>
        <mxCell id="qMlEdyEDlKEKImTxNxm0-16" style="edgeStyle=orthogonalEdgeStyle;rounded=0;orthogonalLoop=1;jettySize=auto;html=1;entryX=0.5;entryY=0;entryDx=0;entryDy=0;fontSize=13;" parent="1" source="qMlEdyEDlKEKImTxNxm0-6" target="qMlEdyEDlKEKImTxNxm0-15" edge="1">
          <mxGeometry relative="1" as="geometry" />
        </mxCell>
        <mxCell id="qMlEdyEDlKEKImTxNxm0-6" value="&lt;b style=&quot;&quot;&gt;判断当前位置&lt;br&gt;是否存在元素&lt;/b&gt;" style="rhombus;whiteSpace=wrap;html=1;fontSize=14;fillColor=#f8cecc;strokeColor=#b85450;" parent="1" vertex="1">
          <mxGeometry x="417.5" y="430" width="170" height="80" as="geometry" />
        </mxCell>
        <mxCell id="qMlEdyEDlKEKImTxNxm0-33" style="edgeStyle=orthogonalEdgeStyle;rounded=0;orthogonalLoop=1;jettySize=auto;html=1;entryX=0.5;entryY=0;entryDx=0;entryDy=0;fontSize=13;" parent="1" source="qMlEdyEDlKEKImTxNxm0-10" target="qMlEdyEDlKEKImTxNxm0-31" edge="1">
          <mxGeometry relative="1" as="geometry" />
        </mxCell>
        <mxCell id="qMlEdyEDlKEKImTxNxm0-10" value="&lt;span style=&quot;font-size: 14px;&quot;&gt;&lt;b&gt;直接插入元素&lt;/b&gt;&lt;/span&gt;" style="rounded=1;whiteSpace=wrap;html=1;fillColor=#dae8fc;strokeColor=#6c8ebf;" parent="1" vertex="1">
          <mxGeometry x="720" y="740" width="127.5" height="60" as="geometry" />
        </mxCell>
        <mxCell id="qMlEdyEDlKEKImTxNxm0-13" value="N" style="text;html=1;align=center;verticalAlign=middle;resizable=0;points=[];autosize=1;strokeColor=none;fillColor=none;fontSize=14;" parent="1" vertex="1">
          <mxGeometry x="587.5" y="450" width="30" height="20" as="geometry" />
        </mxCell>
        <mxCell id="qMlEdyEDlKEKImTxNxm0-24" style="edgeStyle=orthogonalEdgeStyle;rounded=0;orthogonalLoop=1;jettySize=auto;html=1;entryX=0.5;entryY=0;entryDx=0;entryDy=0;fontSize=13;" parent="1" source="qMlEdyEDlKEKImTxNxm0-15" target="qMlEdyEDlKEKImTxNxm0-23" edge="1">
          <mxGeometry relative="1" as="geometry" />
        </mxCell>
        <mxCell id="qMlEdyEDlKEKImTxNxm0-25" style="edgeStyle=orthogonalEdgeStyle;rounded=0;orthogonalLoop=1;jettySize=auto;html=1;entryX=0;entryY=0.5;entryDx=0;entryDy=0;fontSize=13;" parent="1" source="qMlEdyEDlKEKImTxNxm0-15" target="qMlEdyEDlKEKImTxNxm0-10" edge="1">
          <mxGeometry relative="1" as="geometry" />
        </mxCell>
        <mxCell id="qMlEdyEDlKEKImTxNxm0-15" value="&lt;b style=&quot;font-size: 13px;&quot;&gt;判断存入元素与当前位&lt;br&gt;置元素hash值是否相等&lt;/b&gt;" style="rhombus;whiteSpace=wrap;html=1;fontSize=14;fillColor=#f8cecc;strokeColor=#b85450;" parent="1" vertex="1">
          <mxGeometry x="413.75" y="570" width="177.5" height="80" as="geometry" />
        </mxCell>
        <mxCell id="qMlEdyEDlKEKImTxNxm0-17" value="Y" style="text;html=1;align=center;verticalAlign=middle;resizable=0;points=[];autosize=1;strokeColor=none;fillColor=none;fontSize=14;" parent="1" vertex="1">
          <mxGeometry x="475" y="520" width="20" height="20" as="geometry" />
        </mxCell>
        <mxCell id="qMlEdyEDlKEKImTxNxm0-21" value="N" style="text;html=1;align=center;verticalAlign=middle;resizable=0;points=[];autosize=1;strokeColor=none;fillColor=none;fontSize=14;" parent="1" vertex="1">
          <mxGeometry x="587.5" y="590" width="30" height="20" as="geometry" />
        </mxCell>
        <mxCell id="qMlEdyEDlKEKImTxNxm0-32" style="edgeStyle=orthogonalEdgeStyle;rounded=0;orthogonalLoop=1;jettySize=auto;html=1;fontSize=13;" parent="1" source="qMlEdyEDlKEKImTxNxm0-22" target="qMlEdyEDlKEKImTxNxm0-31" edge="1">
          <mxGeometry relative="1" as="geometry" />
        </mxCell>
        <mxCell id="qMlEdyEDlKEKImTxNxm0-22" value="&lt;span style=&quot;font-size: 14px;&quot;&gt;&lt;b&gt;直接覆盖元素&lt;/b&gt;&lt;/span&gt;" style="rounded=1;whiteSpace=wrap;html=1;fillColor=#dae8fc;strokeColor=#6c8ebf;" parent="1" vertex="1">
          <mxGeometry x="438.75" y="870" width="127.5" height="60" as="geometry" />
        </mxCell>
        <mxCell id="qMlEdyEDlKEKImTxNxm0-28" style="edgeStyle=orthogonalEdgeStyle;rounded=0;orthogonalLoop=1;jettySize=auto;html=1;entryX=0;entryY=0.5;entryDx=0;entryDy=0;fontSize=13;" parent="1" source="qMlEdyEDlKEKImTxNxm0-23" target="qMlEdyEDlKEKImTxNxm0-10" edge="1">
          <mxGeometry relative="1" as="geometry" />
        </mxCell>
        <mxCell id="qMlEdyEDlKEKImTxNxm0-30" style="edgeStyle=orthogonalEdgeStyle;rounded=0;orthogonalLoop=1;jettySize=auto;html=1;entryX=0.5;entryY=0;entryDx=0;entryDy=0;fontSize=13;" parent="1" source="qMlEdyEDlKEKImTxNxm0-23" target="qMlEdyEDlKEKImTxNxm0-22" edge="1">
          <mxGeometry relative="1" as="geometry" />
        </mxCell>
        <mxCell id="qMlEdyEDlKEKImTxNxm0-23" value="&lt;span style=&quot;font-size: 13px;&quot;&gt;&lt;b&gt;判断存入元素的key与当&lt;br&gt;前位置的key是否相等&lt;br&gt;&lt;/b&gt;&lt;/span&gt;" style="rhombus;whiteSpace=wrap;html=1;fontSize=14;fillColor=#f8cecc;strokeColor=#b85450;" parent="1" vertex="1">
          <mxGeometry x="413.75" y="730" width="177.5" height="80" as="geometry" />
        </mxCell>
        <mxCell id="qMlEdyEDlKEKImTxNxm0-26" value="Y" style="text;html=1;align=center;verticalAlign=middle;resizable=0;points=[];autosize=1;strokeColor=none;fillColor=none;fontSize=14;" parent="1" vertex="1">
          <mxGeometry x="475" y="660" width="20" height="20" as="geometry" />
        </mxCell>
        <mxCell id="qMlEdyEDlKEKImTxNxm0-29" value="N" style="text;html=1;align=center;verticalAlign=middle;resizable=0;points=[];autosize=1;strokeColor=none;fillColor=none;fontSize=14;" parent="1" vertex="1">
          <mxGeometry x="587.5" y="750" width="30" height="20" as="geometry" />
        </mxCell>
        <mxCell id="qMlEdyEDlKEKImTxNxm0-31" value="&lt;span style=&quot;font-size: 14px;&quot;&gt;&lt;b&gt;结束&lt;/b&gt;&lt;/span&gt;" style="rounded=1;whiteSpace=wrap;html=1;fillColor=#fff2cc;strokeColor=#d6b656;" parent="1" vertex="1">
          <mxGeometry x="630" y="1000" width="127.5" height="60" as="geometry" />
        </mxCell>
        <mxCell id="qMlEdyEDlKEKImTxNxm0-35" value="" style="edgeStyle=orthogonalEdgeStyle;rounded=0;orthogonalLoop=1;jettySize=auto;html=1;fontSize=13;" parent="1" source="qMlEdyEDlKEKImTxNxm0-34" target="qMlEdyEDlKEKImTxNxm0-1" edge="1">
          <mxGeometry relative="1" as="geometry" />
        </mxCell>
        <mxCell id="qMlEdyEDlKEKImTxNxm0-34" value="&lt;span style=&quot;font-size: 14px;&quot;&gt;&lt;b&gt;开始&lt;/b&gt;&lt;/span&gt;" style="rounded=1;whiteSpace=wrap;html=1;fillColor=#fff2cc;strokeColor=#d6b656;" parent="1" vertex="1">
          <mxGeometry x="797.5" y="210" width="127.5" height="60" as="geometry" />
        </mxCell>
      </root>
    </mxGraphModel>
  </diagram>
</mxfile>
